<?xml version="1.0" encoding="UTF-8" standalone="no"?>
<svg
   width="166.28088"
   height="68.57634"
   viewBox="0 0 155.88832 64.290319"
   version="1.1"
   id="svg3"
   xmlns:xlink="http://www.w3.org/1999/xlink"
   xmlns="http://www.w3.org/2000/svg"
   xmlns:svg="http://www.w3.org/2000/svg">
  <path
     d="m 23.58,16.245 -14.6159999,25.314001 -3.414,-5.785 3.94,-6.780001 -7.823,-0.02 L 1.2255317e-7,26.083 1.7030001,23.127 12.838,23.162 16.84,16.262 Z M 41.714,25.389 27.1,0.07399997 l 6.716,-0.063 3.902,6.80000003 3.93,-6.76500003 3.337,0.002 1.7,2.95300003 -5.598,9.626 3.974,6.916 z"
     fill="#7ebae4"
     id="path1"
     style="fill:#ffd072;fill-opacity:1;fill-rule:evenodd" />
  <g
     id="g4"
     style="fill:#f5f891;fill-opacity:1"
     transform="translate(1.2255317e-7,-3.969)">
    <use
       xlink:href="#B"
       id="use2"
       style="fill:#f5f891;fill-opacity:1;fill-rule:evenodd" />
    <path
       d="m 35.28,19.486 -29.23,-0.002 3.303,-5.848 7.84,0.022 -3.893,-6.785 1.67,-2.9 3.412,-0.004 5.537,9.66 7.976,0.016 z m 1.14,20.294 14.616,-25.313 3.413,5.785 -3.94,6.78 7.823,0.02 1.668,2.9 -1.703,2.956 -11.135,-0.035 -4.002,6.9 z"
       id="path2"
       style="fill:#f5f891;fill-opacity:1;fill-rule:evenodd" />
  </g>
  <defs
     id="defs3">
    <path
       id="B"
       d="m 18.305,30.642 14.615,25.314 -6.716,0.063 -3.902,-6.8 -3.93,6.765 -3.337,-0.002 -1.71,-2.953 5.598,-9.626 -3.974,-6.916 z" />
  </defs>
  <path
     d="m 51.065418,63.852142 -14.614,-25.314999 6.716,-0.063 3.902,6.8 3.93,-6.765 3.337,0.002 1.7,2.953 -5.598,9.625999 3.974,6.916 z"
     fill="#7ebae4"
     id="path3"
     style="fill:#acf8a5;fill-opacity:1;fill-rule:evenodd" />
  <path
     d="m 35.872633,38.912322 14.614,25.314999 -6.716,0.063 -3.902,-6.8 -3.93,6.765 -3.337,-0.002 -1.7,-2.953 5.598,-9.626 -3.974,-6.915999 z"
     fill="#7ebae4"
     id="path4"
     style="fill:#9dd796;fill-opacity:1;fill-rule:evenodd" />
  <path
     d="m 57.571677,39.068756 h 3.328857 v 10.398559 l 11.04126,-10.398559 h 4.284667 L 64.015158,50.538482 77.099874,63.672638 H 72.71633 L 60.900534,51.823883 v 11.848755 h -3.328857 z m 29.761966,3.279419 -4.515385,12.244263 h 9.047241 z m -1.878666,-3.279419 h 3.773803 l 9.376828,24.603882 H 95.144921 L 92.903705,57.360992 H 81.813009 l -2.24121,6.311646 h -3.510133 z m 16.743163,0 h 3.32886 v 21.802368 h 11.98059 v 2.801514 h -15.30945 z m 10.94239,0 h 3.57604 l 6.82252,10.118408 6.77307,-10.118408 h 3.57605 l -8.70118,12.886963 V 63.672638 H 121.8417 V 51.955719 Z m 22.80761,0 h 3.57605 l 6.11389,9.146119 6.14685,-9.146119 h 3.57606 l -7.91016,11.815796 8.4375,12.788086 h -3.57606 l -6.92138,-10.464477 -6.97083,10.464477 h -3.59253 l 8.78357,-13.134156 z"
     id="text3"
     style="font-size:36px;-inkscape-font-specification:Normal;white-space:pre;fill:#9dd796;stroke-width:0.9375"
     aria-label="KALYX" />
</svg>
